<?xml version="1.0" encoding="utf-8"?>
<?xml-stylesheet type="text/xsl" href="rss1.xsl"?>
<rss version="2.0" xmlns:atom="http://www.w3.org/2005/Atom" xmlns:content="http://purl.org/rss/1.0/modules/content/" xmlns:dc="http://purl.org/dc/elements/1.1/" xmlns:media="http://search.yahoo.com/mrss/">
<channel>
 <title>Getty</title>
 <link>http://www.gettyimg.com/</link>
 <atom:link href="http://www.gettyimg.com/" rel="self" type="application/rss+xml" />

 
                <item>
                <title><![CDATA[【HD Live Performances】HDTV - Hozier - Live @ Lollapalooza Brazil 2024 HDTV H264 1080i DD5.1-ilya2129]]></title>
                <link><![CDATA[https://sharemania.us/threads/hozier-live-lollapalooza-brazil-2024-hdtv-h264-1080i-dd5-1-ilya2129.240650/]]></link>
                <description><![CDATA[<article>
<blockquote class="messageText SelectQuoteContainer ugc baseHtml">
<div style="text-align: center"><img src="https://i121.fastpic.org/big/2023/0325/ca/6f5a28b7f8348073a65a926d4889cdca.png?r=1" class="bbCodeImage LbImage" alt="[​IMG]" data-url="https://i121.fastpic.org/big/2023/0325/ca/6f5a28b7f8348073a65a926d4889cdca.png?r=1" style=""><br>
<br>
<a href="https://postimg.cc/8fkXCj05" target="_blank" class="externalLink" rel="nofollow"><img src="https://i.postimg.cc/8fkXCj05/vlcsnap-2024-03-24-16h00m31s876.png" class="bbCodeImage LbImage" alt="[​IMG]" data-url="https://i.postimg.cc/8fkXCj05/vlcsnap-2024-03-24-16h00m31s876.png"></a> <a href="https://postimg.cc/8j5nQfvX" target="_blank" class="externalLink" rel="nofollow"><img src="https://i.postimg.cc/8j5nQfvX/vlcsnap-2024-03-24-16h00m34s793.png" class="bbCodeImage LbImage" alt="[​IMG]" data-url="https://i.postimg.cc/8j5nQfvX/vlcsnap-2024-03-24-16h00m34s793.png"></a> <a href="https://postimg.cc/v1RPVPNC" target="_blank" class="externalLink" rel="nofollow"><img src="https://i.postimg.cc/v1RPVPNC/vlcsnap-2024-03-24-16h00m37s605.png" class="bbCodeImage LbImage" alt="[​IMG]" data-url="https://i.postimg.cc/v1RPVPNC/vlcsnap-2024-03-24-16h00m37s605.png"></a> <a href="https://postimg.cc/bsBVzYHy" target="_blank" class="externalLink" rel="nofollow"><img src="https://i.postimg.cc/bsBVzYHy/vlcsnap-2024-03-24-16h00m41s057.png" class="bbCodeImage LbImage" alt="[​IMG]" data-url="https://i.postimg.cc/bsBVzYHy/vlcsnap-2024-03-24-16h00m41s057.png"></a> <a href="https://postimg.cc/5XQ7jcnw" target="_blank" class="externalLink" rel="nofollow"><img src="https://i.postimg.cc/5XQ7jcnw/vlcsnap-2024-03-24-16h00m44s676.png" class="bbCodeImage LbImage" alt="[​IMG]" data-url="https://i.postimg.cc/5XQ7jcnw/vlcsnap-2024-03-24-16h00m44s676.png"></a> <a href="https://postimg.cc/jCvkF4DJ" target="_blank" class="externalLink" rel="nofollow"><img src="https://i.postimg.cc/jCvkF4DJ/vlcsnap-2024-03-24-16h00m47s470.png" class="bbCodeImage LbImage" alt="[​IMG]" data-url="https://i.postimg.cc/jCvkF4DJ/vlcsnap-2024-03-24-16h00m47s470.png"></a> <br>
<br>
​</div><br>
<div class="bbCodeBlock bbCodeCode">
<div class="type">Code:</div>
<pre>General
ID                                       : 1 (0x1)
Complete name                            : D:\Hozier - Live @ Lollapalooza Brazil 2024 HDTV H264 1080i DD5.1-ilya2129.ts
Format                                   : MPEG-TS
File size                                : 4.68 GiB
Duration                                 : 59 min 3 s
Overall bit rate mode                    : Variable
Overall bit rate                         : 11.4 Mb/s
Frame rate                               : 29.970 FPS

Video
ID                                       : 5392 (0x1510)
Menu ID                                  : 1 (0x1)
Format                                   : AVC
Format/Info                              : Advanced Video Codec
Format profile                           : High@L4
Format settings                          : CABAC / 4 Ref Frames
Format settings, CABAC                   : Yes
Format settings, Reference frames        : 4 frames
Codec ID                                 : 27
Duration                                 : 59 min 3 s
Bit rate mode                            : Variable
Bit rate                                 : 10.2 Mb/s
Maximum bit rate                         : 18.1 Mb/s
Width                                    : 1 920 pixels
Height                                   : 1 080 pixels
Display aspect ratio                     : 16:9
Active Format Description                : Full frame 16:9 image
Frame rate                               : 29.970 (30000/1001) FPS
Standard                                 : Component
Color space                              : YUV
Chroma subsampling                       : 4:2:0
Bit depth                                : 8 bits
Scan type                                : MBAFF
Scan type, store method                  : Interleaved fields
Scan order                               : Top Field First
Bits/(Pixel*Frame)                       : 0.164
Stream size                              : 4.21 GiB (90%)
Color range                              : Limited
Color primaries                          : BT.709
Transfer characteristics                 : BT.709
Matrix coefficients                      : BT.709

Audio #1
ID                                       : 5393 (0x1511)
Menu ID                                  : 1 (0x1)
Format                                   : AC-3
Format/Info                              : Audio Coding 3
Commercial name                          : Dolby Digital
Codec ID                                 : 129
Duration                                 : 59 min 3 s
Bit rate mode                            : Constant
Bit rate                                 : 384 kb/s
Channel(s)                               : 6 channels
Channel layout                           : L R C LFE Ls Rs
Sampling rate                            : 48.0 kHz
Frame rate                               : 31.250 FPS (1536 SPF)
Compression mode                         : Lossy
Delay relative to video                  : -33 ms
Stream size                              : 162 MiB (3%)
Language                                 : Portuguese
Service kind                             : Complete Main

Audio #2
ID                                       : 5394 (0x1512)
Menu ID                                  : 1 (0x1)
Format                                   : MPEG Audio
Format version                           : Version 1
Format profile                           : Layer 2
Codec ID                                 : 3
Duration                                 : 59 min 3 s
Bit rate mode                            : Constant
Bit rate                                 : 192 kb/s
Channel(s)                               : 2 channels
Sampling rate                            : 48.0 kHz
Frame rate                               : 41.667 FPS (1152 SPF)
Compression mode                         : Lossy
Delay relative to video                  : -33 ms
Stream size                              : 81.1 MiB (2%)
Language                                 : English
</pre>
</div><div style="text-align: center">
<div class="bbCodeBlock bbCodeVfcHH HiddenContent">
<div class="attribution type">Hidden Content:</div>
<blockquote>You must either reply or click 'Like' to see the hidden information contained here.</blockquote>
</div></div>
<div class="messageTextEndMarker">&nbsp;</div>
</blockquote>
</article>]]></description>
                <author><![CDATA[ilya2129]]></author>
                </item>

                
                <item>
                <title><![CDATA[【Music Videos】Shakira - Give It Up To Me (No Rap) (2009) [reuploaded]]]></title>
                <link><![CDATA[https://sharemania.us/threads/shakira-give-it-up-to-me-no-rap-2009-reuploaded.240649/]]></link>
                <description><![CDATA[<article>
<blockquote class="messageText SelectQuoteContainer ugc baseHtml">
<div style="text-align: center"><img src="https://i.postimg.cc/3r04c1YZ/Shakira-Give-It-Up-To-Me-No-Rap-2009-Fan-Made-mp4-thumbs2.jpg" class="bbCodeImage LbImage" alt="[​IMG]" data-url="https://i.postimg.cc/3r04c1YZ/Shakira-Give-It-Up-To-Me-No-Rap-2009-Fan-Made-mp4-thumbs2.jpg" style=""><br>
<img src="https://i.postimg.cc/fyqwB6kN/Shakira-Give-It-Up-To-Me-No-Rap-2009-Fan-Made-mp4-thumbs.jpg" class="bbCodeImage LbImage" alt="[​IMG]" data-url="https://i.postimg.cc/fyqwB6kN/Shakira-Give-It-Up-To-Me-No-Rap-2009-Fan-Made-mp4-thumbs.jpg" style="">​</div><span style="font-size: 9px">℗ 2009 Copyright © – Epic Sony Music Entertainment Inc. / Novák Edited Video* All rights reserved®</span><br>
<div style="text-align: center"><br>
<div class="bbCodeBlock bbCodeVfcHH HiddenContent">
<div class="attribution type">Hidden Content:</div>
<blockquote>You must either reply or click 'Like' to see the hidden information contained here.</blockquote>
</div></div>
<div class="messageTextEndMarker">&nbsp;</div>
</blockquote>
</article>]]></description>
                <author><![CDATA[Fan Made]]></author>
                </item>

                </channel></rss>